<svg version="1.2" xmlns="http://www.w3.org/2000/svg" viewBox="0 0 1280 320" width="1280" height="320">
	<title>KafkaFlow-Retry-Extensions-Logo</title>
	<style>
		.s0 { fill: #000000 } 
	</style>
	<path id="RETRY EXTENSIONS" class="s0" aria-label="RETRY EXTENSIONS"  d="m209.2 278h13.7v-22.5h16.6c8.2 0 10.6 2.5 11.5 12.4 0.6 6.8 0.7 7.4 1.3 10.1h15.2c-1.5-3.1-1.7-3.8-2.3-12.1-0.8-12-2.5-14.7-10.4-16.5 8.5-3 12.1-7.5 12.1-15.3 0-6.3-2.8-11.5-7.6-14.1-3.1-1.5-6.9-2-14.8-2h-35.3zm13.7-33.6v-15h17.8c3.9 0 5.1 0.1 6.7 0.6 2.8 1 4.4 3.3 4.4 6.7 0 3.2-1.5 5.6-4.4 6.9-1.6 0.6-2.7 0.8-6.7 0.8zm55.5 33.6h54v-11.5h-40.4v-14.1h35.6v-10.7h-35.6v-12.2h40.4v-11.6h-54zm80.9 0h13.6v-48.5h21.1v-11.5h-55.7v11.5h21zm42 0h13.7v-22.5h16.6c8.2 0 10.6 2.5 11.4 12.5 0.7 6.7 0.8 7.3 1.4 10h15.2c-1.5-3.1-1.7-3.7-2.3-12.1-0.8-12-2.5-14.7-10.4-16.5 8.5-3 12.1-7.5 12.1-15.3 0-6.3-2.8-11.5-7.7-14-3-1.6-6.8-2.1-14.7-2.1h-35.3zm13.7-33.6v-15h17.8c3.9 0 5.1 0.1 6.7 0.6 2.7 1 4.4 3.4 4.4 6.7 0 3.2-1.6 5.7-4.4 6.9-1.6 0.7-2.7 0.8-6.7 0.8zm73.7 33.6h13.7v-23.8l27.4-36.2h-17l-17 24.1-17.4-24.1h-17.7l28 36.2zm70.6 0h54.1v-11.5h-40.4v-14h35.6v-10.7h-35.6v-12.3h40.4v-11.5h-54.1zm59.4 0h17.7l16.7-20.5 16.8 20.5h18.3l-26.2-30.8 24.5-29.2h-18l-15.4 18.9-15.5-18.9h-18.9l25.4 29.2zm93.7 0h13.7v-48.5h21.1v-11.5h-55.8v11.5h21zm42.1 0h54v-11.5h-40.4v-14h35.6v-10.7h-35.6v-12.3h40.4v-11.5h-54zm63.8 0h13.3v-40.7l33.5 40.7h15.1v-60h-13.3v40.6l-33.4-40.6h-15.2zm71.3-20.3c0.7 11.4 7.5 18.8 19.3 21 3.5 0.6 7.1 1 11 1 19.5 0 30.8-7.5 30.8-20.5 0-5.4-2.3-10-6.2-12.6-3.7-2.4-7.5-3.5-19.4-5.4-9.9-1.5-12.3-1.9-14.8-2.7-2.9-0.9-4.3-2.4-4.3-4.9 0-4.1 4.6-6.2 13.1-6.2 8.8 0 12.7 2.3 13.5 8.1h15.8c-0.3-5.1-1.8-8.5-5.4-12.1-4.8-4.8-12.4-7.2-23.8-7.2-18.3 0-28.7 7-28.7 19.3 0 5.4 2.4 9.9 6.5 12.4 4.1 2.4 5.9 3 19.5 5 12 1.9 15.6 3 17.1 5.3 0.6 0.7 0.8 1.7 0.8 2.8 0 3.5-2.9 6.3-7.8 7.2-1.7 0.2-3.4 0.4-5.2 0.4-10.2 0-15-3.3-15.7-10.9zm70.5 20.3h13.8v-60.1h-13.8zm60.3-61.7c-21.7 0-36.5 13-36.5 31.7 0 14.2 8 25.1 21.8 29.5 4.6 1.5 9.6 2.2 14.8 2.2 21.6 0 36.4-12.7 36.4-31.3 0-14.4-8.5-25.9-22.5-30.1-4.5-1.4-8.9-2-14-2zm0 11.1c12.5 0 21.3 8.5 21.3 20.7 0 12-8.9 20.7-21.3 20.7-12.3 0-21.3-8.7-21.3-20.6 0-9.1 5-16.6 13.2-19.6 2.4-0.9 4.9-1.2 8.1-1.2zm46.4 50.6h13.3v-40.6l33.5 40.6h15.1v-60h-13.3v40.7l-33.4-40.7h-15.2zm71.3-20.2c0.8 11.4 7.5 18.8 19.3 20.9 3.5 0.7 7.1 1 11 1 19.5 0 30.8-7.5 30.8-20.4 0-5.4-2.3-10.1-6.2-12.6-3.7-2.4-7.5-3.5-19.4-5.4-9.9-1.5-12.2-2-14.8-2.8-2.9-0.8-4.3-2.3-4.3-4.9 0-4 4.6-6.2 13.1-6.2 8.8 0 12.7 2.4 13.5 8.1h15.8c-0.3-5-1.8-8.4-5.4-12-4.8-4.9-12.4-7.2-23.8-7.2-18.3 0-28.7 6.9-28.7 19.2 0 5.4 2.4 9.9 6.5 12.4 4.1 2.5 5.9 3 19.5 5.1 12 1.9 15.6 3 17.1 5.2 0.6 0.7 0.8 1.7 0.8 2.8 0 3.6-2.9 6.4-7.8 7.2-1.7 0.3-3.4 0.4-5.2 0.4-10.2 0-15-3.3-15.7-10.8z"/>
	<path id="KafkaFlow" class="s0" aria-label="KafkaFlow"  d="m76.6 196h30.4v-41.4l20.8-18.6 49.4 60h41.4l-66.8-79.2 63.4-54.2h-44.6l-63.6 57v-57h-30.4zm183.4-67c1-6.6 2.4-9 5.6-11 4.4-2.8 10.2-4.2 18-4.2 10.2 0 16.6 2.2 19.8 6.6 0.8 1.2 1.4 2.8 1.4 4.6 0 6.2-4.6 8.2-24.8 10.6-31.4 3.6-31.4 3.6-39.6 6.8-11.4 4.4-18 14-18 26.6 0 15.2 10 26.2 26.8 29.4 4.4 1 9 1.4 13.6 1.4 18.2 0 31.2-4.8 42.6-15.6l2.6 11.8h30.6v-3c-2.8-3-3.6-7.2-3.6-18v-41.4c0-13.8-1.8-20.8-6.8-26.6-5.4-6-14.4-10.4-25.8-12.6-6.2-1.2-13-1.8-20-1.8-32.8 0-52.6 13.4-54 36.4zm44.6 23.6c0 8.4-1.6 13.2-6 16.8-6.8 5.6-17.4 9.2-27 9.2-8.4 0-14.2-2.4-16.4-7-0.4-1.2-0.8-2.6-0.8-4 0-8 5.2-11 23.6-13.6 19-2.4 20.4-2.8 26.6-6zm57.2 43.4h30.6v-77.6h23.8v-22h-23.8v-5.2c0-5.2 2.4-6.6 11.8-6.6h12v-23.8h-22c-23.4 0-32.4 7-32.4 25.4v10.2h-11.2v22h11.2zm69 0h30.4v-29.2l14.6-12.2 32.4 41.4h39.8l-48.4-61 46-38.6h-40.8l-43.6 38.6v-72.4h-30.4zm159.6-67c1-6.6 2.4-9 5.6-11 4.4-2.8 10.2-4.2 18-4.2 10.2 0 16.6 2.2 19.8 6.6 0.8 1.2 1.4 2.8 1.4 4.6 0 6.2-4.6 8.2-24.8 10.6-31.4 3.6-31.4 3.6-39.6 6.8-11.4 4.4-18 14-18 26.6 0 15.2 10 26.2 26.8 29.4 4.4 1 9 1.4 13.6 1.4 18.2 0 31.2-4.8 42.6-15.6l2.6 11.8h30.6v-3c-2.8-3-3.6-7.2-3.6-18v-41.4c0-13.8-1.8-20.8-6.8-26.6-5.4-6-14.4-10.4-25.8-12.6-6.2-1.2-13-1.8-20-1.8-32.8 0-52.6 13.4-54 36.4zm44.6 23.6c0 8.4-1.6 13.2-6 16.8-6.8 5.6-17.4 9.2-27 9.2-8.4 0-14.2-2.4-16.4-7-0.4-1.2-0.8-2.6-0.8-4 0-8 5.2-11 23.6-13.6 19-2.4 20.4-2.8 26.6-6zm56.6 43.4h30.2v-54.4h77.4v-23.8h-77.4v-29.8h85.2v-25.4h-115.4zm131.8 0h30.4v-133.4h-30.4zm115-103.4c-38.8 0-65 21.4-65 52.8 0 25.4 14.8 44.2 40.6 51.2 7.6 2.2 15.6 3.2 24.6 3.2 28.4 0 50.8-11.8 60-31.6 3-6.4 4.6-14 4.6-22 0-24.6-15-43.2-40.6-50.4-7.6-2.2-15-3.2-24.2-3.2zm0 21.2c20.2 0 32.8 12.6 32.8 32.8 0 19.8-12.8 32.2-32.8 32.2-20 0-33-12.4-33-31.8 0-15.8 7-26.6 19.6-31 4.4-1.6 8.4-2.2 13.4-2.2zm111.2 82.2h29.2l24.8-58 24.4 58h29.2l41.8-99.6h-31.6l-24.2 62.6-23.8-62.6h-30l-24.4 62.6-23.6-62.6h-34.4z"/>
</svg>